<svg xmlns="http://www.w3.org/2000/svg" xmlns:xlink="http://www.w3.org/1999/xlink" width="90" height="90" viewBox="0 0 90 90">
  <defs>
    <filter id="Ellipse_15" x="0" y="0" width="90" height="90" filterUnits="userSpaceOnUse">
      <feOffset dy="3" input="SourceAlpha"/>
      <feGaussianBlur stdDeviation="3" result="blur"/>
      <feFlood flood-opacity="0.161"/>
      <feComposite operator="in" in2="blur"/>
      <feComposite in="SourceGraphic"/>
    </filter>
  </defs>
  <g id="Group_354" data-name="Group 354" transform="translate(248 -579)">
    <g id="Group_318" data-name="Group 318" transform="translate(-431 353)">
      <g transform="matrix(1, 0, 0, 1, 183, 226)" filter="url(#Ellipse_15)">
        <circle id="Ellipse_15-2" data-name="Ellipse 15" cx="36" cy="36" r="36" transform="translate(9 6)" fill="#fff"/>
      </g>
      <path id="Path_186" data-name="Path 186" d="M42.461,16.444a7.238,7.238,0,0,1-7.242,7.242H7.242A7.242,7.242,0,1,1,10.45,9.945,11.848,11.848,0,0,1,22.076,0h.062A11.839,11.839,0,0,1,33.713,9.346a7.144,7.144,0,0,1,1.5-.155A7.262,7.262,0,0,1,42.461,16.444Z" transform="translate(203.171 249.171)" fill="#dae2f2"/>
      <path id="Path_187" data-name="Path 187" d="M227.03,16.444a7.238,7.238,0,0,1-7.242,7.242H205.8V.031c.279-.021.567-.031.856-.031h.062A11.858,11.858,0,0,1,218.3,9.357a7.144,7.144,0,0,1,1.5-.155A7.242,7.242,0,0,1,227.03,16.444Z" transform="translate(18.601 249.171)" fill="#b9ceed"/>
      <path id="Path_189" data-name="Path 189" d="M32.832,12.715a5.6,5.6,0,0,1-5.6,5.6H5.6A5.6,5.6,0,1,1,8.08,7.689,9.161,9.161,0,0,1,17.07,0h.048a9.154,9.154,0,0,1,8.95,7.227,5.524,5.524,0,0,1,1.157-.12A5.615,5.615,0,0,1,32.832,12.715Z" transform="translate(218.799 266.542)" fill="#eef6ff"/>
      <path id="Path_188" data-name="Path 188" d="M222.216,12.715a5.6,5.6,0,0,1-5.6,5.6H205.8V.024c.215-.016.439-.024.662-.024h.048a9.169,9.169,0,0,1,8.958,7.235,5.524,5.524,0,0,1,1.157-.12A5.6,5.6,0,0,1,222.216,12.715Z" transform="translate(29.415 266.542)" fill="#dae2f2"/>
    </g>
  </g>
</svg>
