<svg xmlns="http://www.w3.org/2000/svg" xmlns:xlink="http://www.w3.org/1999/xlink" width="90" height="90" viewBox="0 0 90 90">
  <defs>
    <clipPath id="clip-path">
      <rect width="90" height="90" fill="none"/>
    </clipPath>
    <filter id="Ellipse_18" x="0" y="0" width="90" height="90" filterUnits="userSpaceOnUse">
      <feOffset dy="3" input="SourceAlpha"/>
      <feGaussianBlur stdDeviation="3" result="blur"/>
      <feFlood flood-opacity="0.161"/>
      <feComposite operator="in" in2="blur"/>
      <feComposite in="SourceGraphic"/>
    </filter>
  </defs>
  <g id="Group_351" data-name="Group 351" transform="translate(534 -487)">
    <g id="Group_350" data-name="Group 350" transform="translate(-180 6)">
      <g id="Repeat_Grid_2" data-name="Repeat Grid 2" transform="translate(-354 481)" clip-path="url(#clip-path)">
        <g id="Group_315" data-name="Group 315" transform="translate(-77 -128)">
          <g transform="matrix(1, 0, 0, 1, 77, 128)" filter="url(#Ellipse_18)">
            <circle id="Ellipse_18-2" data-name="Ellipse 18" cx="36" cy="36" r="36" transform="translate(9 6)" fill="#fff"/>
          </g>
        </g>
      </g>
    </g>
    <g id="haze" transform="translate(-513 502.815)">
      <path id="Path_151" data-name="Path 151" d="M103.177,52.345a9.537,9.537,0,1,1-13.487,0A9.537,9.537,0,0,1,103.177,52.345Zm0,0" transform="translate(-77.643 -44.054)" fill="#ffeb99"/>
      <path id="Path_152" data-name="Path 152" d="M171.061,52.4a9.513,9.513,0,0,0-8.19-2.672,9.524,9.524,0,0,1,0,18.832,9.529,9.529,0,0,0,8.19-16.16Zm0,0" transform="translate(-145.528 -44.114)" fill="#ffde55"/>
      <path id="Path_153" data-name="Path 153" d="M124.036,137.618A9.48,9.48,0,0,0,126.582,133a9.546,9.546,0,0,0-16.34,4.284c.1.113.2.23.307.341A9.536,9.536,0,0,0,124.036,137.618Zm0,0" transform="translate(-98.503 -115.84)" fill="#ffde55"/>
      <g id="Group_349" data-name="Group 349" transform="translate(4.004 0.248)">
        <path id="Path_154" data-name="Path 154" d="M75.365,38.762a.741.741,0,0,1-.527-.218l-1.69-1.69A.745.745,0,0,1,74.2,35.8l1.688,1.69a.745.745,0,0,1-.527,1.272Zm0,0" transform="translate(-69.167 -31.819)" fill="#ffeb99"/>
        <path id="Path_155" data-name="Path 155" d="M40.652,98.889a.739.739,0,0,1-.193-.025l-2.308-.619a.745.745,0,0,1,.386-1.44l2.308.619a.745.745,0,0,1-.193,1.465Zm0,0" transform="translate(-37.598 -86.5)" fill="#ffeb99"/>
        <path id="Path_156" data-name="Path 156" d="M38.349,163.748a.745.745,0,0,1-.193-1.465l2.308-.618a.745.745,0,0,1,.385,1.44l-2.308.617A.737.737,0,0,1,38.349,163.748Zm0,0" transform="translate(-37.603 -144.454)" fill="#ffeb99"/>
        <path id="Path_157" data-name="Path 157" d="M199.717,4.048A.746.746,0,0,1,199,3.109L199.615.8a.745.745,0,0,1,1.44.386L200.436,3.5A.745.745,0,0,1,199.717,4.048Zm0,0" transform="translate(-181.787 -0.248)" fill="#ffeb99"/>
        <path id="Path_158" data-name="Path 158" d="M135.487,4.051a.745.745,0,0,1-.72-.554l-.619-2.307A.745.745,0,0,1,135.589.8l.619,2.308a.747.747,0,0,1-.72.938Zm0,0" transform="translate(-123.845 -0.252)" fill="#ffeb99"/>
        <path id="Path_159" data-name="Path 159" d="M252.548,215.946a.742.742,0,0,1-.527-.218l-1.69-1.69a.745.745,0,1,1,1.054-1.054l1.69,1.69a.745.745,0,0,1-.527,1.272Zm0,0" transform="translate(-227.484 -190.136)" fill="#fabe02"/>
        <path id="Path_160" data-name="Path 160" d="M250.877,38.957a.745.745,0,0,1-.527-1.272l1.69-1.69a.746.746,0,0,1,1.052,1.054l-1.69,1.69A.741.741,0,0,1,250.877,38.957Zm0,0" transform="translate(-227.5 -32.014)" fill="#ffeb99"/>
        <path id="Path_161" data-name="Path 161" d="M73.678,216.141a.745.745,0,0,1-.527-1.272l1.69-1.69a.745.745,0,0,1,1.052,1.054l-1.69,1.69A.743.743,0,0,1,73.678,216.141Zm0,0" transform="translate(-69.17 -190.331)" fill="#ffeb99"/>
        <path id="Path_162" data-name="Path 162" d="M282.7,163.744a.742.742,0,0,1-.193-.025L280.2,163.1a.745.745,0,1,1,.386-1.44l2.308.618a.745.745,0,0,1-.193,1.465Zm0,0" transform="translate(-253.869 -144.45)" fill="#ffeb99"/>
        <path id="Path_163" data-name="Path 163" d="M280.384,98.892a.745.745,0,0,1-.193-1.465l2.308-.618a.745.745,0,0,1,.386,1.44l-2.308.618A.742.742,0,0,1,280.384,98.892Zm0,0" transform="translate(-253.866 -86.504)" fill="#ffeb99"/>
        <path id="Path_164" data-name="Path 164" d="M134.866,246.083a.724.724,0,0,1-.193-.025.745.745,0,0,1-.527-.913l.619-2.309a.745.745,0,1,1,1.44.386l-.618,2.31A.745.745,0,0,1,134.866,246.083Zm0,0" transform="translate(-123.841 -216.511)" fill="#fabe02"/>
        <path id="Path_165" data-name="Path 165" d="M200.406,246.349a.745.745,0,0,1-.72-.554l-.619-2.308a.745.745,0,0,1,1.439-.384l.619,2.308a.745.745,0,0,1-.527.913A.73.73,0,0,1,200.406,246.349Zm0,0" transform="translate(-181.858 -216.776)" fill="#fabe02"/>
      </g>
      <path id="Path_166" data-name="Path 166" d="M74.094,157.4a6.446,6.446,0,0,0-3.389.963,9.553,9.553,0,0,0-18.714,1.289A5.44,5.44,0,1,0,50.7,170.375h23.4a6.488,6.488,0,0,0,0-12.975Zm0,0" transform="translate(-40.434 -134.937)" fill="#dae2f2"/>
      <path id="Path_167" data-name="Path 167" d="M53.871,304.695a5.436,5.436,0,0,0,4.482,2.421H77.063a1.406,1.406,0,0,0,0-2.811H54.842A1.4,1.4,0,0,0,53.871,304.695Zm0,0" transform="translate(-48.135 -271.68)" fill="#dae2f2"/>
      <path id="Path_168" data-name="Path 168" d="M322.5,304.289h-3.816a1.4,1.4,0,0,0-.481,2.723A6.481,6.481,0,0,0,322.5,304.289Zm0,0" transform="translate(-283.49 -271.665)" fill="#168aa5"/>
      <path id="Path_169" data-name="Path 169" d="M295.359,208.875a6.4,6.4,0,0,0-1.231.122,6.486,6.486,0,0,1-1.242,12.853h2.471a6.488,6.488,0,1,0,0-12.975Zm0,0" transform="translate(-261.699 -186.411)" fill="#b9ceed"/>
      <path id="Path_170" data-name="Path 170" d="M196.123,157.353A9.456,9.456,0,0,0,186,151.362a9.538,9.538,0,0,1,6.261,3.558,7.3,7.3,0,0,1,1.456,4.9,10.643,10.643,0,0,0,.077,1.891.2.2,0,0,0,.391.015,5.153,5.153,0,0,1,2.281-3.353,9.331,9.331,0,0,0-.314-.965A.5.5,0,0,0,196.123,157.353Zm0,0" transform="translate(-166.194 -134.943)" fill="#b9ceed"/>
      <path id="Path_171" data-name="Path 171" d="M27.414,307.116H5.192a1.406,1.406,0,1,1,0-2.811H27.414a1.406,1.406,0,0,1,0,2.811Zm12.146-1.406a1.406,1.406,0,0,0-1.405-1.406h-4.48a1.406,1.406,0,0,0,0,2.811h4.479a1.406,1.406,0,0,0,1.408-1.406Zm7.315,0A1.406,1.406,0,0,0,45.47,304.3H43.934a1.406,1.406,0,1,0,0,2.811H45.47a1.406,1.406,0,0,0,1.405-1.406Zm-9.555,6.2a1.406,1.406,0,0,0-1.406-1.405H14.953a1.405,1.405,0,1,0,0,2.811H35.914A1.405,1.405,0,0,0,37.321,311.908Zm-12.5,6.2a1.406,1.406,0,0,0-1.406-1.405H7.105a1.406,1.406,0,0,0,0,2.811H23.414A1.406,1.406,0,0,0,24.821,318.107Zm17.774,0a1.406,1.406,0,0,0-1.405-1.405H30.64a1.406,1.406,0,0,0,0,2.811H41.188A1.405,1.405,0,0,0,42.595,318.107Zm6.121-6.2A1.406,1.406,0,0,0,47.31,310.5H41.823a1.405,1.405,0,1,0,0,2.811h5.485a1.405,1.405,0,0,0,1.406-1.405Zm-38.238,0A1.406,1.406,0,0,0,9.072,310.5H1.405a1.405,1.405,0,1,0,0,2.811H9.072a1.405,1.405,0,0,0,1.405-1.405Zm0,0" transform="translate(0 -271.68)" fill="#eef6ff"/>
      <path id="Path_172" data-name="Path 172" d="M319.7,365.331h1.871a1.405,1.405,0,1,0,0-2.811H319.7a1.405,1.405,0,1,1,0,2.811Zm0,0" transform="translate(-285.66 -323.695)" fill="#b9ceed"/>
      <path id="Path_173" data-name="Path 173" d="M412.243,305.71A1.4,1.4,0,0,1,411,307.1a1.4,1.4,0,0,0,.167.017h1.536a1.406,1.406,0,0,0,0-2.811h-1.536a1.511,1.511,0,0,0-.167.017A1.4,1.4,0,0,1,412.243,305.71Zm0,0" transform="translate(-367.239 -271.68)" fill="#b9ceed"/>
      <path id="Path_174" data-name="Path 174" d="M67.617,365.331h1.871a1.405,1.405,0,1,0,0-2.811H67.617a1.405,1.405,0,1,1,0,2.811Zm0,0" transform="translate(-60.417 -323.695)" fill="#b9ceed"/>
      <path id="Path_175" data-name="Path 175" d="M342.132,305.7a1.406,1.406,0,0,1-1.406,1.406H342.6a1.406,1.406,0,0,0,0-2.811h-1.871A1.406,1.406,0,0,1,342.132,305.7Zm0,0" transform="translate(-304.445 -271.673)" fill="#b9ceed"/>
      <path id="Path_176" data-name="Path 176" d="M428.6,362.5h-1.869a1.406,1.406,0,1,1,0,2.811H428.6a1.406,1.406,0,1,0,0-2.811Zm0,0" transform="translate(-381.287 -323.681)" fill="#b9ceed"/>
      <path id="Path_177" data-name="Path 177" d="M241.282,305.7a1.406,1.406,0,0,1-1.406,1.406h1.871a1.406,1.406,0,0,0,0-2.811h-1.871A1.406,1.406,0,0,1,241.282,305.7Zm0,0" transform="translate(-214.332 -271.673)" fill="#b9ceed"/>
      <path id="Path_178" data-name="Path 178" d="M371.1,420.719H369.23a1.405,1.405,0,1,1,0,2.811H371.1a1.405,1.405,0,0,0,0-2.811Zm0,0" transform="translate(-329.914 -375.697)" fill="#b9ceed"/>
      <path id="Path_179" data-name="Path 179" d="M204.2,420.719h-1.869a1.405,1.405,0,1,1,0,2.811H204.2a1.405,1.405,0,1,0,0-2.811Zm0,0" transform="translate(-180.784 -375.697)" fill="#b9ceed"/>
    </g>
  </g>
</svg>
